<svg id="visual" viewBox="0 0 900 600" width="900" height="600" xmlns="http://www.w3.org/2000/svg" xmlns:xlink="http://www.w3.org/1999/xlink" version="1.1"><rect x="0" y="0" width="900" height="600" fill="#08090e"></rect><defs><linearGradient id="grad1_0" x1="33.3%" y1="100%" x2="100%" y2="0%"><stop offset="20%" stop-color="#fbae3c" stop-opacity="1"></stop><stop offset="80%" stop-color="#fbae3c" stop-opacity="1"></stop></linearGradient></defs><defs><linearGradient id="grad1_1" x1="33.3%" y1="100%" x2="100%" y2="0%"><stop offset="20%" stop-color="#fbae3c" stop-opacity="1"></stop><stop offset="80%" stop-color="#eb7f50" stop-opacity="1"></stop></linearGradient></defs><defs><linearGradient id="grad1_2" x1="33.3%" y1="100%" x2="100%" y2="0%"><stop offset="20%" stop-color="#c55b5e" stop-opacity="1"></stop><stop offset="80%" stop-color="#eb7f50" stop-opacity="1"></stop></linearGradient></defs><defs><linearGradient id="grad1_3" x1="33.3%" y1="100%" x2="100%" y2="0%"><stop offset="20%" stop-color="#c55b5e" stop-opacity="1"></stop><stop offset="80%" stop-color="#914460" stop-opacity="1"></stop></linearGradient></defs><defs><linearGradient id="grad1_4" x1="33.3%" y1="100%" x2="100%" y2="0%"><stop offset="20%" stop-color="#593451" stop-opacity="1"></stop><stop offset="80%" stop-color="#914460" stop-opacity="1"></stop></linearGradient></defs><defs><linearGradient id="grad1_5" x1="33.3%" y1="100%" x2="100%" y2="0%"><stop offset="20%" stop-color="#593451" stop-opacity="1"></stop><stop offset="80%" stop-color="#2a2234" stop-opacity="1"></stop></linearGradient></defs><defs><linearGradient id="grad1_6" x1="33.3%" y1="100%" x2="100%" y2="0%"><stop offset="20%" stop-color="#08090e" stop-opacity="1"></stop><stop offset="80%" stop-color="#2a2234" stop-opacity="1"></stop></linearGradient></defs><defs><linearGradient id="grad2_0" x1="0%" y1="100%" x2="66.7%" y2="0%"><stop offset="20%" stop-color="#fbae3c" stop-opacity="1"></stop><stop offset="80%" stop-color="#fbae3c" stop-opacity="1"></stop></linearGradient></defs><defs><linearGradient id="grad2_1" x1="0%" y1="100%" x2="66.7%" y2="0%"><stop offset="20%" stop-color="#eb7f50" stop-opacity="1"></stop><stop offset="80%" stop-color="#fbae3c" stop-opacity="1"></stop></linearGradient></defs><defs><linearGradient id="grad2_2" x1="0%" y1="100%" x2="66.7%" y2="0%"><stop offset="20%" stop-color="#eb7f50" stop-opacity="1"></stop><stop offset="80%" stop-color="#c55b5e" stop-opacity="1"></stop></linearGradient></defs><defs><linearGradient id="grad2_3" x1="0%" y1="100%" x2="66.7%" y2="0%"><stop offset="20%" stop-color="#914460" stop-opacity="1"></stop><stop offset="80%" stop-color="#c55b5e" stop-opacity="1"></stop></linearGradient></defs><defs><linearGradient id="grad2_4" x1="0%" y1="100%" x2="66.7%" y2="0%"><stop offset="20%" stop-color="#914460" stop-opacity="1"></stop><stop offset="80%" stop-color="#593451" stop-opacity="1"></stop></linearGradient></defs><defs><linearGradient id="grad2_5" x1="0%" y1="100%" x2="66.7%" y2="0%"><stop offset="20%" stop-color="#2a2234" stop-opacity="1"></stop><stop offset="80%" stop-color="#593451" stop-opacity="1"></stop></linearGradient></defs><defs><linearGradient id="grad2_6" x1="0%" y1="100%" x2="66.7%" y2="0%"><stop offset="20%" stop-color="#2a2234" stop-opacity="1"></stop><stop offset="80%" stop-color="#08090e" stop-opacity="1"></stop></linearGradient></defs><g transform="translate(900, 600)"><path d="M-189.3 0C-183.4 -18.2 -177.6 -36.4 -173.1 -56.2C-168.6 -76.1 -165.4 -97.7 -153.1 -111.3C-140.9 -124.8 -119.5 -130.3 -102.9 -141.6C-86.3 -152.8 -74.4 -169.9 -58.1 -178.8C-41.7 -187.7 -20.9 -188.5 0 -189.3L0 0Z" fill="#191822"></path><path d="M-162.2 0C-157.2 -15.6 -152.2 -31.2 -148.4 -48.2C-144.5 -65.3 -141.8 -83.8 -131.3 -95.4C-120.7 -107 -102.4 -111.7 -88.2 -121.4C-73.9 -131 -63.8 -145.6 -49.8 -153.3C-35.8 -160.9 -17.9 -161.6 0 -162.2L0 0Z" fill="#402b44"></path><path d="M-135.2 0C-131 -13 -126.9 -26 -123.6 -40.2C-120.4 -54.4 -118.2 -69.8 -109.4 -79.5C-100.6 -89.1 -85.3 -93.1 -73.5 -101.1C-61.6 -109.2 -53.2 -121.3 -41.5 -127.7C-29.8 -134.1 -14.9 -134.6 0 -135.2L0 0Z" fill="#753c5b"></path><path d="M-108.2 0C-104.8 -10.4 -101.5 -20.8 -98.9 -32.1C-96.3 -43.5 -94.5 -55.8 -87.5 -63.6C-80.5 -71.3 -68.3 -74.5 -58.8 -80.9C-49.3 -87.3 -42.5 -97.1 -33.2 -102.2C-23.9 -107.3 -11.9 -107.7 0 -108.2L0 0Z" fill="#ac4e61"></path><path d="M-81.1 0C-78.6 -7.8 -76.1 -15.6 -74.2 -24.1C-72.3 -32.6 -70.9 -41.9 -65.6 -47.7C-60.4 -53.5 -51.2 -55.8 -44.1 -60.7C-37 -65.5 -31.9 -72.8 -24.9 -76.6C-17.9 -80.4 -8.9 -80.8 0 -81.1L0 0Z" fill="#da6b58"></path><path d="M-54.1 0C-52.4 -5.2 -50.7 -10.4 -49.5 -16.1C-48.2 -21.8 -47.3 -27.9 -43.8 -31.8C-40.2 -35.7 -34.1 -37.2 -29.4 -40.5C-24.6 -43.7 -21.3 -48.5 -16.6 -51.1C-11.9 -53.6 -6 -53.9 0 -54.1L0 0Z" fill="#f69546"></path><path d="M-27 0C-26.2 -2.6 -25.4 -5.2 -24.7 -8C-24.1 -10.9 -23.6 -14 -21.9 -15.9C-20.1 -17.8 -17.1 -18.6 -14.7 -20.2C-12.3 -21.8 -10.6 -24.3 -8.3 -25.5C-6 -26.8 -3 -26.9 0 -27L0 0Z" fill="#fbae3c"></path></g><g transform="translate(0, 0)"><path d="M189.3 0C184.5 19.9 179.7 39.7 170.2 55.3C160.7 70.9 146.5 82.2 137.5 99.9C128.5 117.6 124.8 141.7 111.3 153.1C97.8 164.6 74.6 163.5 54.4 167.4C34.2 171.3 17.1 180.3 0 189.3L0 0Z" fill="#191822"></path><path d="M162.2 0C158.2 17 154.1 34 145.9 47.4C137.8 60.8 125.6 70.5 117.9 85.6C110.2 100.8 106.9 121.4 95.4 131.3C83.8 141.1 63.9 140.1 46.6 143.5C29.3 146.8 14.7 154.5 0 162.2L0 0Z" fill="#402b44"></path><path d="M135.2 0C131.8 14.2 128.4 28.4 121.6 39.5C114.8 50.6 104.7 58.7 98.2 71.4C91.8 84 89.1 101.2 79.5 109.4C69.8 117.6 53.3 116.8 38.8 119.6C24.4 122.4 12.2 128.8 0 135.2L0 0Z" fill="#753c5b"></path><path d="M108.2 0C105.4 11.3 102.7 22.7 97.3 31.6C91.9 40.5 83.7 47 78.6 57.1C73.4 67.2 71.3 81 63.6 87.5C55.9 94.1 42.6 93.4 31.1 95.6C19.6 97.9 9.8 103 0 108.2L0 0Z" fill="#ac4e61"></path><path d="M81.1 0C79.1 8.5 77 17 73 23.7C68.9 30.4 62.8 35.2 58.9 42.8C55.1 50.4 53.5 60.7 47.7 65.6C41.9 70.5 32 70.1 23.3 71.7C14.7 73.4 7.3 77.3 0 81.1L0 0Z" fill="#da6b58"></path><path d="M54.1 0C52.7 5.7 51.4 11.3 48.6 15.8C45.9 20.3 41.9 23.5 39.3 28.5C36.7 33.6 35.6 40.5 31.8 43.8C27.9 47 21.3 46.7 15.5 47.8C9.8 48.9 4.9 51.5 0 54.1L0 0Z" fill="#f69546"></path><path d="M27 0C26.4 2.8 25.7 5.7 24.3 7.9C23 10.1 20.9 11.7 19.6 14.3C18.4 16.8 17.8 20.2 15.9 21.9C14 23.5 10.7 23.4 7.8 23.9C4.9 24.5 2.4 25.8 0 27L0 0Z" fill="#fbae3c"></path></g></svg>